<svg xmlns="http://www.w3.org/2000/svg" width="38.875" height="38.938"><path d="M31.1 24.1a3.831 3.831 0 0 0-2.779-1.274 3.961 3.961 0 0 0-2.811 1.266l-2.6 2.59c-.214-.115-.427-.222-.633-.329a9.855 9.855 0 0 1-.814-.436 28.227 28.227 0 0 1-6.763-6.165 16.66 16.66 0 0 1-2.219-3.5c.674-.617 1.3-1.258 1.907-1.875.23-.23.46-.468.691-.7a3.773 3.773 0 0 0 0-5.69L12.83 5.741c-.255-.255-.518-.518-.765-.781a39.191 39.191 0 0 0-1.545-1.53 3.89 3.89 0 0 0-2.754-1.209 4.025 4.025 0 0 0-2.8 1.209l-.016.016-2.8 2.82a6.017 6.017 0 0 0-1.775 3.825 14.417 14.417 0 0 0 1.052 6.1 35.406 35.406 0 0 0 6.289 10.492A38.689 38.689 0 0 0 20.6 36.773a20.073 20.073 0 0 0 7.234 2.137c.173.008.354.017.518.017a6.193 6.193 0 0 0 4.743-2.039c.008-.016.025-.024.033-.041a18.565 18.565 0 0 1 1.439-1.488c.353-.337.715-.691 1.069-1.061a4.1 4.1 0 0 0 1.241-2.845 3.953 3.953 0 0 0-1.266-2.82Zm2.943 8.658c-.008 0-.008.008 0 0-.321.345-.649.658-1 1a21.593 21.593 0 0 0-1.587 1.644 3.962 3.962 0 0 1-3.091 1.308c-.123 0-.255 0-.378-.008a17.829 17.829 0 0 1-6.412-1.924 36.519 36.519 0 0 1-12.141-9.501 33.382 33.382 0 0 1-5.919-9.859 11.743 11.743 0 0 1-.921-5.147 3.775 3.775 0 0 1 1.135-2.442l2.8-2.8a1.869 1.869 0 0 1 1.25-.584 1.758 1.758 0 0 1 1.2.576l.028.021c.5.469.978.954 1.48 1.472.255.263.518.526.781.8l2.244 2.245a1.569 1.569 0 0 1 0 2.549c-.238.239-.468.477-.707.707a43.615 43.615 0 0 1-2.063 2.007.188.188 0 0 0-.041.041 1.678 1.678 0 0 0-.427 1.867l.026.07a18.012 18.012 0 0 0 2.655 4.333l.008.008a30.18 30.18 0 0 0 7.3 6.644 11.182 11.182 0 0 0 1.011.551c.3.148.575.288.814.436.033.016.066.041.1.057a1.782 1.782 0 0 0 .814.206 1.758 1.758 0 0 0 1.249-.567l2.812-2.812a1.86 1.86 0 0 1 1.241-.616 1.674 1.674 0 0 1 1.184.6l.012.016 4.53 4.531a1.626 1.626 0 0 1 .008 2.573ZM21.362 9.235a10.582 10.582 0 0 1 8.615 8.617 1.1 1.1 0 0 0 1.093.921 1.456 1.456 0 0 0 .189-.017 1.111 1.111 0 0 0 .913-1.282A12.793 12.793 0 0 0 21.749 7.048a1.115 1.115 0 0 0-1.282.9 1.1 1.1 0 0 0 .895 1.287Zm17.855 7.918A21.068 21.068 0 0 0 22.053-.015a1.109 1.109 0 1 0-.362 2.187 18.817 18.817 0 0 1 15.34 15.343 1.1 1.1 0 0 0 1.093.921 1.472 1.472 0 0 0 .189-.017 1.09 1.09 0 0 0 .904-1.266Z" transform="translate(-.344)" style="fill:#fff;fill-rule:evenodd"/></svg>